<?xml version="1.0" encoding="utf-8"?>
<!-- Generator: Adobe Illustrator 24.2.3, SVG Export Plug-In . SVG Version: 6.00 Build 0)  -->
<svg version="1.1" id="Layer_1" xmlns="http://www.w3.org/2000/svg" xmlns:xlink="http://www.w3.org/1999/xlink" x="0px" y="0px"
	 viewBox="0 0 218.6 152.2" style="enable-background:new 0 0 218.6 152.2;" xml:space="preserve">
<style type="text/css">
	.st0{fill:#FFFFFF;}
	.st1{fill:#57AFDB;}
	.st2{fill:#1575AE;}
	.st3{fill:none;stroke:#454752;stroke-width:2;stroke-miterlimit:10;}
	.st4{fill:none;stroke:#454752;stroke-width:2;stroke-linecap:round;stroke-miterlimit:10;}
	.st5{fill:#E6E6F8;}
	.st6{fill:none;stroke:#454752;stroke-width:3;stroke-linecap:round;stroke-linejoin:round;stroke-miterlimit:10;}
	.st7{fill:#DDE6FE;}
	.st8{fill:#6A708C;}
	.st9{font-family:'Montserrat-Bold';}
	.st10{font-size:32.9006px;}
	.st11{font-size:19.5098px;}
	.st12{font-size:20.7749px;}
	.st13{fill:#F9E0E5;}
	.st14{font-size:15.5481px;}
</style>
<path class="st0" d="M142.4,41.2v48.5c0,5.8-4.6,10.6-10.3,10.6H83.2c-5.7,0-10.3-4.7-10.3-10.6V27.2c0-5.8,4.6-10.6,10.3-10.6h35.4
	L142.4,41.2z"/>
<path class="st1" d="M90.3,67c0,2.4,2.9,13,7.7,14c4.9,1.1,16.7,2.5,18,0.1s2.7-4.3,2.7-4.3l-13.5-10.2L90.3,67z"/>
<path class="st2" d="M105.9,50.4v16l13,9.9l2.9-2.3c0,0,3.7-4.7,0.7-12.5S113.3,50,105.9,50.4z"/>
<g>
	<g>
		<polyline class="st3" points="105.2,49.4 105.2,66.3 118.8,76.3 		"/>
		<line class="st4" x1="95.5" y1="66.4" x2="105.2" y2="66.3"/>
	</g>
	<path class="st4" d="M89.7,66.8c0,1.1,0-0.6,0-0.2c0,9.3,7.6,16.5,16.9,16.5s16.9-7.6,16.9-16.9s-7.6-16.9-16.9-16.9
		c-0.4,0-0.9,0-1.3,0.1"/>
</g>
<path class="st5" d="M116.8,17.4c0,0,0,17.7,2.3,20.4c2.3,2.6,3.9,4.6,13.6,4.5c9.7-0.2,8.9-1.3,8.9-1.3l-23.4-23.5h-1.4V17.4z"/>
<path class="st6" d="M142.4,41v48.7c0,5.9-4.7,10.6-10.6,10.6H81.6c-5.9,0-10.6-4.7-10.6-10.6V26.9c0-5.9,4.7-10.6,10.6-10.6H118
	L142.4,41z"/>
<path class="st6" d="M116.2,29.3c0,0-1.1,12.8,10,12.8c16.2,0,16.2,0,14.8,0"/>
<ellipse class="st7" cx="108.3" cy="132" rx="64.2" ry="9.2"/>
<text transform="matrix(0.7071 0.7071 -0.7071 0.7071 15.8335 16.3313)" class="st8 st9 st10">+</text>
<g>
	<circle class="st7" cx="197.3" cy="38.8" r="3.9"/>
	<text transform="matrix(1 0 0 1 191.0637 44.3403)" class="st8 st9 st11">o</text>
</g>
<text transform="matrix(0.7071 0.7071 -0.7071 0.7071 193.3872 83.1484)" class="st8 st9 st12">+</text>
<g>
	<circle class="st13" cx="19" cy="73.6" r="3.1"/>
	<text transform="matrix(1 0 0 1 14.0139 77.973)" class="st8 st9 st14">o</text>
</g>
</svg>
