<?xml version="1.0" encoding="utf-8"?>
<!-- Generator: Adobe Illustrator 24.2.3, SVG Export Plug-In . SVG Version: 6.00 Build 0)  -->
<svg version="1.1" id="Layer_1" xmlns="http://www.w3.org/2000/svg" xmlns:xlink="http://www.w3.org/1999/xlink" x="0px" y="0px"
	 viewBox="0 0 218.6 152.2" style="enable-background:new 0 0 218.6 152.2;" xml:space="preserve">
<style type="text/css">
	.st0{fill:#57AFDB;}
	.st1{fill:#DDE6FE;}
	.st2{fill:#FFFFFF;}
	.st3{fill:#E6E6F8;}
	.st4{fill:none;stroke:#454752;stroke-width:3;stroke-linecap:round;stroke-linejoin:round;stroke-miterlimit:10;}
	.st5{fill:#454752;}
	.st6{fill:#6A708C;}
	.st7{font-family:'Montserrat-Bold';}
	.st8{font-size:32.9006px;}
	.st9{font-size:19.5098px;}
	.st10{font-size:20.7749px;}
</style>
<g id="Layer_1_1_">
</g>
<path class="st0" d="M90.3,67c0,2.4,2.9,13,7.7,14c4.9,1.1,16.7,2.5,18,0.1s2.7-4.3,2.7-4.3l-13.5-10.2L90.3,67z"/>
<ellipse class="st1" cx="108.3" cy="132" rx="64.2" ry="9.2"/>
<g>
	<path class="st2" d="M146,43.1v49.4c0,5.9-4.8,10.8-10.8,10.8H84c-6,0-10.8-4.8-10.8-10.8V28.8C73.2,22.9,78,18,84,18h37L146,43.1z
		"/>
	<path class="st3" d="M119,18.5c0,0,0,17,2.3,19.5s3.9,4.4,13.7,4.3c9.8-0.1,9.1-1.2,9.1-1.2l-23.7-22.5L119,18.5L119,18.5z"/>
	<path class="st4" d="M146,42.1v50.3c0,6-4.9,10.9-10.9,10.9H83.2c-6,0-10.9-4.9-10.9-10.9V27.5c0-6,4.9-10.9,10.9-10.9h37.5
		L146,42.1z"/>
	<path class="st5" d="M135.1,59.9H83.6c-1,0-1.7-0.8-1.7-1.7l0,0c0-1,0.8-1.7,1.7-1.7h51.5c1,0,1.7,0.8,1.7,1.7l0,0
		C136.9,59.2,136.1,59.9,135.1,59.9z"/>
	<path class="st5" d="M135.1,71.2H83.6c-1,0-1.7-0.8-1.7-1.7l0,0c0-1,0.8-1.7,1.7-1.7h51.5c1,0,1.7,0.8,1.7,1.7l0,0
		C136.9,70.4,136.1,71.2,135.1,71.2z"/>
	<path class="st5" d="M135.1,81.5h-4.8c-1,0-1.7-0.8-1.7-1.7l0,0c0-1,0.8-1.7,1.7-1.7h4.8c1,0,1.7,0.8,1.7,1.7l0,0
		C136.9,80.8,136.1,81.5,135.1,81.5z"/>
	<path class="st5" d="M123,81.5h-4.8c-1,0-1.7-0.8-1.7-1.7l0,0c0-1,0.8-1.7,1.7-1.7h4.8c1,0,1.7,0.8,1.7,1.7l0,0
		C124.8,80.8,124,81.5,123,81.5z"/>
	<path class="st4" d="M119,30c0,0-1.2,13.2,10.3,13.2c16.7,0,16.7,0,15.3,0"/>
	<text transform="matrix(1 0 0 1 17.1916 36.1127)" class="st6 st7 st8">+</text>
	<g>
		<circle class="st1" cx="198.8" cy="50.8" r="3.9"/>
		<text transform="matrix(1 0 0 1 192.5149 56.3403)" class="st6 st7 st9">o</text>
	</g>
	<text transform="matrix(0.7071 0.7071 -0.7071 0.7071 173.0424 104.5583)" class="st6 st7 st10">+</text>
</g>
</svg>
