<?xml version="1.0" encoding="utf-8"?>
<!-- Generator: Adobe Illustrator 24.2.3, SVG Export Plug-In . SVG Version: 6.00 Build 0)  -->
<svg version="1.1" id="Layer_1" xmlns="http://www.w3.org/2000/svg" xmlns:xlink="http://www.w3.org/1999/xlink" x="0px" y="0px"
	 viewBox="0 0 218.6 152.2" style="enable-background:new 0 0 218.6 152.2;" xml:space="preserve">
<style type="text/css">
	.st0{fill:#FFFFFF;}
	.st1{fill:#E5E5F9;}
	.st2{fill:none;stroke:#454753;stroke-width:3;stroke-linecap:round;stroke-linejoin:round;stroke-miterlimit:10;}
	.st3{fill:#DAE5FF;}
	.st4{fill:#69708D;}
	.st5{font-family:'Montserrat-Bold';}
	.st6{font-size:32.9006px;}
	.st7{font-size:19.5098px;}
	.st8{font-size:20.7749px;}
	.st9{font-size:13.1418px;}
</style>
<path class="st0" d="M142,44.4v49.4c0,5.9-4.8,10.8-10.8,10.8H80c-6,0-10.8-4.8-10.8-10.8V30.1c0-5.9,4.8-10.8,10.8-10.8H117
	L142,44.4z"/>
<path class="st1" d="M115,19.5c0,0,0,17.7,2.3,20.3c2.3,2.6,3.9,4.6,13.7,4.5c9.8-0.2,9.1-1.3,9.1-1.3l-23.7-23.5H115z"/>
<path class="st2" d="M142,43.4v50.3c0,6-4.9,10.9-10.9,10.9H79.2c-6,0-10.9-4.9-10.9-10.9V28.8c0-6,4.9-10.9,10.9-10.9h37.5
	L142,43.4z"/>
<path class="st2" d="M115,31.3c0,0-1.2,13.2,10.3,13.2c16.7,0,16.7,0,15.3,0"/>
<ellipse class="st3" cx="105.7" cy="135.2" rx="64.2" ry="9.2"/>
<text transform="matrix(1 0 0 1 28.722 77.3596)" class="st4 st5 st6">+</text>
<g>
	<circle class="st3" cx="174.8" cy="42.1" r="3.9"/>
	<text transform="matrix(1 0 0 1 168.5038 47.6255)" class="st4 st5 st7">o</text>
</g>
<text transform="matrix(0.7071 0.7071 -0.7071 0.7071 159.031 95.8436)" class="st4 st5 st8">+</text>
<rect x="74.6" y="56" class="st1" width="60.1" height="3.7"/>
<rect x="74.6" y="63" class="st1" width="60.1" height="3.7"/>
<rect x="74.6" y="70" class="st1" width="60.1" height="3.7"/>
<rect x="74.6" y="77" class="st1" width="60.1" height="3.7"/>
<rect x="74.6" y="59.7" class="st4" width="60.1" height="3.7"/>
<rect x="74.6" y="66.7" class="st4" width="60.1" height="3.7"/>
<rect x="74.6" y="73.7" class="st4" width="60.1" height="3.7"/>
<g>
	<circle class="st3" cx="45.3" cy="10.8" r="2.7"/>
	<text transform="matrix(1 0 0 1 41.0653 14.5271)" class="st4 st5 st9">o</text>
</g>
</svg>
