<?xml version="1.0" encoding="utf-8"?>
<!-- Generator: Adobe Illustrator 24.2.3, SVG Export Plug-In . SVG Version: 6.00 Build 0)  -->
<svg version="1.1" id="Layer_1" xmlns="http://www.w3.org/2000/svg" xmlns:xlink="http://www.w3.org/1999/xlink" x="0px" y="0px"
	 viewBox="0 0 93.7 24.6" style="enable-background:new 0 0 93.7 24.6;" xml:space="preserve">
<style type="text/css">
	.st0{fill:#7F42FF;}
	.st1{fill:#3AE700;}
	.st2{opacity:0.73;fill:#3AE700;enable-background:new    ;}
	.st3{fill:#603DFF;}
</style>
<g>
	<text transform="matrix(1 0 0 1 391.7231 -34.9014)" class="st0" style="font-family:'Cairo-SemiBold'; font-size:27.8077px;">carrot</text>
	<path class="st0" d="M397.7-66.3c-1.4-0.3-2.8-0.7-4-1.5c-0.9-0.7-1.1-1.7-0.4-2.6c0.2-0.3,0.5-0.5,0.9-0.7c1.5-0.8,3.2-1,5-1.1
		c0.1,0,0.2-0.1,0.4-0.1c-0.1-0.1-0.1-0.3-0.2-0.4c-0.5-0.7-1.1-1.3-1.6-2c-0.6-0.9-1.1-1.8-1.3-2.8c-0.2-1.4,0.7-2.3,2.1-2.2
		c1.1,0.1,2,0.5,2.9,1.1c1,0.6,2,1.3,2.9,2.1c1.4,1.1,2.6,2.4,3.7,3.8c0.4,0.5,0.4,0.5,0.7-0.1c1.1-2.3,2.9-3.7,5.3-4.4
		c2.3-0.7,4.7-0.7,7-0.5c4.4,0.3,8.7,1.3,13.1,1.9c0.9,0.1,1.8,0.3,2.8,0.5c1.3,0.3,2.5,0.6,3.8,0.8c1.4,0.3,2.8,0.6,4.2,0.9
		c3.9,0.9,7.8,1.8,11.6,3.3c1.1,0.4,2.1,1,3.1,1.7c1.9,1.3,1.8,3.3-0.1,4.5c-0.8,0.6-1.8,1-2.8,1.3c-3.6,1.2-7.4,1.8-11.2,2.3
		c-4.7,0.6-9.4,1-14.1,1.5c-1.7,0.2-3.4,0.4-5.2,0.5c-1.4,0.1-2.8,0.1-4.2,0.1c-3.1,0-6.1-0.1-9.1-1.3c-2.1-0.9-3.6-2.3-4.5-4.4
		c-0.1-0.3-0.2-0.6-0.4-0.9c-0.3,0.4-0.6,0.7-0.9,1c-1.9,1.8-4,3.4-6.3,4.6c-1.1,0.5-2.1,1-3.3,0.9c-1.3-0.1-2-1-1.8-2.3
		c0.1-0.3,0.2-0.6,0.3-0.9c0.7-1.4,1.7-2.5,2.8-3.5c0.2-0.2,0.3-0.3,0.6-0.6C398.6-66.2,398.1-66.2,397.7-66.3z M438.9-61.6
		c2.9-0.4,5.9-0.7,8.8-1.1c0.4-0.1,0.6-0.2,0.6-0.7c0-1.4,0.1-2.8,0.2-4.2c0-0.6,0.4-1,0.9-1s0.9,0.5,0.9,1.1
		c-0.1,1.3-0.1,2.5-0.2,3.8c0,0.2,0,0.3,0,0.5c1.1-0.2,2.1-0.4,3-0.6c1.6-0.4,3.3-0.8,4.8-1.6c0.1-0.1,0.2-0.1,0.3-0.2
		c0.9-0.6,0.8-1,0-1.7c-1.1-0.9-2.4-1.4-3.7-1.8c-2.3-0.7-4.6-1.4-6.9-2c-1.6-0.4-3.3-0.8-4.9-1.2c-0.4-0.1-0.3,0.2-0.3,0.4
		c-0.1,1.8-0.2,3.7-0.3,5.5c0,0.3-0.1,0.7-0.3,0.8c-0.2,0.2-0.6,0.2-0.9,0.2c-0.4-0.1-0.6-0.5-0.6-0.9c0.1-1.2,0.1-2.5,0.2-3.7
		c0-0.8,0.1-1.5,0.1-2.3c0-0.3-0.1-0.4-0.4-0.5c-2.4-0.4-4.9-0.9-7.3-1.4c-2-0.4-4.1-0.8-6.1-1.1c-0.4-0.1-0.6,0-0.6,0.4
		c-0.1,2.6-0.2,5.2-0.4,7.8c0,0.4-0.2,0.8-0.6,0.9c-0.3,0.1-0.7,0.1-0.9-0.2c-0.2-0.2-0.3-0.6-0.3-0.9c0-1.7,0.1-3.3,0.2-5
		c0-1,0.1-2,0.1-3c0-0.2,0-0.4-0.3-0.5c-2.9-0.4-5.8-0.7-8.8-0.1c-1.3,0.2-2.5,0.7-3.5,1.5c-1.1,0.8-1.8,2-2.1,3.3
		c-0.5,2.1-0.6,4.1,0.1,6.2c0.6,1.7,1.9,2.8,3.6,3.5c0.5,0.2,1.1,0.4,1.7,0.6c0.3,0.1,0.4,0.1,0.5-0.3c0.1-2.6,0.2-5.2,0.4-7.8
		c0-0.6,0.4-1.1,0.9-1.1c0.6,0,0.9,0.5,0.9,1.1c-0.1,2.6-0.2,5.3-0.4,7.9c0,0.4,0.1,0.6,0.5,0.6c2.1,0,4.3,0.1,6.4,0
		c1.4,0,2.8-0.1,4.2-0.2c0.7-0.1,1.4-0.2,2.1-0.2c0.1,0,0.3,0,0.4,0c0.9,0,0.9,0,1-1c0.1-1.3,0.1-2.5,0.2-3.8c0-0.9,0.1-1.7,0.1-2.6
		c0-0.7,0.4-1.1,0.9-1c0.5,0,0.9,0.6,0.9,1.2c-0.1,2.2-0.2,4.3-0.3,6.5c0,0.2,0,0.3,0,0.5C435.5-61.3,437.2-61.4,438.9-61.6z
		 M398.6-78c-0.1,0-0.3-0.1-0.4,0c-0.1,0.1,0,0.2,0,0.3c1,2.1,2.6,3.8,4.2,5.4c0.4,0.4,0.6,0.8,0.4,1.2c-0.2,0.5-0.6,0.5-1.1,0.5
		c-0.3,0-0.5,0-0.8,0c-1.1,0-2.2,0-3.3,0.1c-0.5,0.1-1,0.2-1.5,0.3s-1,0.3-1.4,0.7c0.9,0.9,2.4,1.2,3.6,1.4c1.1,0.2,2.2,0.2,3.3,0.3
		c0.7,0.1,1.2,0.6,0.9,1.3c-0.1,0.3-0.4,0.5-0.7,0.6c-1,0.7-1.9,1.5-2.8,2.4c-0.8,0.8-1.4,1.7-1.8,2.7v0.1c0,0,0,0,0.1,0
		c1,0.1,1.9-0.3,2.8-0.8c0.9-0.4,1.7-1,2.5-1.6c1.2-0.9,2.3-1.8,3.3-2.8c0.6-0.6,1.1-1.4,1.4-2.2c0.5-1.2,0-2.3-0.6-3.3
		c-1-1.5-2.3-2.8-3.7-4c-0.7-0.6-1.5-1.2-2.3-1.7C400.2-77.4,399.4-77.7,398.6-78z"/>
</g>
<g>
	<g>
		<polygon class="st1" points="17.4,6 15.5,3.2 12.9,3.2 17.4,9.8 22,3.2 19.4,3.2 		"/>
		<polygon class="st2" points="17.4,3.5 15.5,0.7 12.9,0.7 17.4,7.2 22,0.7 19.4,0.7 		"/>
	</g>
	<g>
		<g>
			<path class="st3" d="M10.6,8.5c0.9,0.5,1.6,1.2,2.1,2.1c0.5,0.9,0.8,2,0.8,3.2c0,1.2-0.3,2.3-0.8,3.2c-0.5,0.9-1.2,1.6-2.1,2.1
				c-0.9,0.5-1.9,0.8-3,0.8c-1.5,0-2.7-0.5-3.6-1.4V24H0.6V7.9h3.3v1.4c0.9-1,2.1-1.5,3.7-1.5C8.7,7.8,9.7,8,10.6,8.5z M9.1,16.2
				c0.6-0.6,0.8-1.4,0.8-2.4s-0.3-1.8-0.8-2.4c-0.6-0.6-1.3-0.9-2.2-0.9c-0.9,0-1.6,0.3-2.2,0.9c-0.6,0.6-0.8,1.4-0.8,2.4
				s0.3,1.8,0.8,2.4c0.6,0.6,1.3,0.9,2.2,0.9C7.8,17.1,8.6,16.8,9.1,16.2z"/>
			<path class="st3" d="M15.7,7.9h3.4v11.8h-3.4V7.9z"/>
			<path class="st3" d="M33.1,9.1c0.9,0.9,1.4,2.2,1.4,3.9v6.8H31v-6.2c0-0.9-0.2-1.6-0.6-2.1c-0.4-0.5-1-0.7-1.8-0.7
				c-0.9,0-1.6,0.3-2.1,0.8c-0.5,0.5-0.8,1.3-0.8,2.4v5.9h-3.4V7.9h3.3v1.4c0.5-0.5,1-0.9,1.7-1.2c0.7-0.3,1.4-0.4,2.2-0.4
				C31,7.8,32.2,8.2,33.1,9.1z"/>
			<path class="st3" d="M49.2,14.8h-9c0.2,0.7,0.5,1.3,1.1,1.7s1.3,0.6,2.2,0.6c0.6,0,1.2-0.1,1.6-0.3c0.5-0.2,0.9-0.5,1.3-0.9
				l1.8,2c-1.1,1.3-2.7,1.9-4.9,1.9c-1.3,0-2.5-0.3-3.5-0.8c-1-0.5-1.8-1.2-2.4-2.2c-0.6-0.9-0.8-2-0.8-3.1c0-1.2,0.3-2.2,0.8-3.1
				s1.3-1.7,2.3-2.2c1-0.5,2-0.8,3.2-0.8c1.2,0,2.2,0.2,3.1,0.7c0.9,0.5,1.7,1.2,2.2,2.1c0.5,0.9,0.8,2,0.8,3.2
				C49.3,13.9,49.3,14.2,49.2,14.8z M41.2,11c-0.5,0.4-0.9,1-1,1.8h5.8c-0.1-0.7-0.4-1.3-1-1.8c-0.5-0.4-1.2-0.7-1.9-0.7
				C42.4,10.4,41.7,10.6,41.2,11z"/>
			<path class="st3" d="M60.2,9.1c1,0.9,1.5,2.2,1.5,3.9v6.8h-3.2v-1.5c-0.6,1.1-1.8,1.6-3.6,1.6c-0.9,0-1.7-0.2-2.4-0.5
				c-0.7-0.3-1.2-0.7-1.5-1.3c-0.4-0.5-0.5-1.2-0.5-1.8c0-1.1,0.4-2,1.2-2.6c0.8-0.6,2.1-0.9,3.8-0.9h2.7c0-0.7-0.2-1.3-0.7-1.7
				c-0.5-0.4-1.1-0.6-2-0.6c-0.6,0-1.2,0.1-1.9,0.3c-0.6,0.2-1.1,0.5-1.6,0.8l-1.2-2.4c0.6-0.5,1.4-0.8,2.3-1.1
				c0.9-0.2,1.8-0.4,2.8-0.4C57.9,7.8,59.3,8.2,60.2,9.1z M57.3,17.2c0.5-0.3,0.8-0.7,1-1.2v-1.2h-2.4c-1.4,0-2.1,0.5-2.1,1.4
				c0,0.4,0.2,0.8,0.5,1c0.3,0.3,0.8,0.4,1.4,0.4C56.3,17.6,56.9,17.5,57.3,17.2z"/>
			<path class="st3" d="M74.8,8.5c0.9,0.5,1.6,1.2,2.1,2.1c0.5,0.9,0.8,2,0.8,3.2c0,1.2-0.3,2.3-0.8,3.2s-1.2,1.6-2.1,2.1
				c-0.9,0.5-1.9,0.8-3,0.8c-1.5,0-2.7-0.5-3.6-1.4V24h-3.4V7.9h3.3v1.4c0.9-1,2.1-1.5,3.7-1.5C72.9,7.8,73.9,8,74.8,8.5z
				 M73.4,16.2c0.6-0.6,0.8-1.4,0.8-2.4s-0.3-1.8-0.8-2.4c-0.6-0.6-1.3-0.9-2.2-0.9s-1.6,0.3-2.2,0.9c-0.6,0.6-0.8,1.4-0.8,2.4
				s0.3,1.8,0.8,2.4c0.6,0.6,1.3,0.9,2.2,0.9S72.8,16.8,73.4,16.2z"/>
			<path class="st3" d="M90,8.5c0.9,0.5,1.6,1.2,2.1,2.1c0.5,0.9,0.8,2,0.8,3.2c0,1.2-0.3,2.3-0.8,3.2s-1.2,1.6-2.1,2.1
				c-0.9,0.5-1.9,0.8-3,0.8c-1.5,0-2.7-0.5-3.6-1.4V24H80V7.9h3.3v1.4c0.9-1,2.1-1.5,3.7-1.5C88.1,7.8,89.1,8,90,8.5z M88.6,16.2
				c0.6-0.6,0.8-1.4,0.8-2.4s-0.3-1.8-0.8-2.4c-0.6-0.6-1.3-0.9-2.2-0.9s-1.6,0.3-2.2,0.9c-0.6,0.6-0.8,1.4-0.8,2.4s0.3,1.8,0.8,2.4
				c0.6,0.6,1.3,0.9,2.2,0.9S88,16.8,88.6,16.2z"/>
		</g>
	</g>
</g>
</svg>
